# xmcd
#
# Track frame offsets:
#	150
#	33136
#	56926
#	87150
#	111191
#	124641
#	146760
#	167263
#	196164
#	218232
#	258185
#	276872
#	306680
#
# Disc length: 4386 seconds
#
# Revision: 1
# Processed by: cddbd v1.4PL0 Copyright (c) Steve Scherf et al.
# Submitted via: CDmax 2.0
#
DISCID=ba11200d
DTITLE=Hot Tuna w/ Paul Kantner - Live at the Chance, Poughkeepsie, NY, 12/11
DTITLE=/1987 - d1
DYEAR=1987
DGENRE=Blues
TTITLE0=Keep Your Lamps Trimmed And Burning
TTITLE1=I Know You Rider
TTITLE2=San Francisco Bay Blues
TTITLE3=Hesitation Blues
TTITLE4=The Bag I'm In
TTITLE5=Other Side of This Life
TTITLE6=Let Us Get Together
TTITLE7=Good Shepard
TTITLE8=Broken Highways
TTITLE9=Ice Age
TTITLE10=Martha
TTITLE11=Never Happen No More
TTITLE12=Too Many Years
EXTD=
EXTT0=
EXTT1=
EXTT2=
EXTT3=
EXTT4=
EXTT5=
EXTT6=
EXTT7=
EXTT8=
EXTT9=
EXTT10=
EXTT11=
EXTT12=
PLAYORDER=
